<?xml version="1.0" encoding="UTF-8"?>
<svg xmlns="http://www.w3.org/2000/svg" xmlns:xlink="http://www.w3.org/1999/xlink" width="100pt" height="100pt" viewBox="0 0 100 100" version="1.1">
<defs>
<linearGradient id="linear0" gradientUnits="userSpaceOnUse" x1="314.62408" y1="547.20599" x2="427.37671" y2="432.48389" gradientTransform="matrix(0.781152,0,0,0.77804,-240.000027,-330.920493)">
<stop offset="0" style="stop-color:rgb(2.745098%,0.392157%,20.784314%);stop-opacity:1;"/>
<stop offset="1" style="stop-color:rgb(38.039216%,17.647059%,31.372549%);stop-opacity:1;"/>
</linearGradient>
</defs>
<g id="surface1">
<path style=" stroke:none;fill-rule:nonzero;fill:url(#linear0);" d="M 16.152344 0 L 83.847656 0 C 92.769531 0 100 7.203125 100 16.089844 L 100 83.925781 C 100 92.808594 92.769531 100.015625 83.847656 100.015625 L 16.152344 100.015625 C 7.230469 100.015625 0 92.808594 0 83.925781 L 0 16.089844 C 0 7.203125 7.230469 0 16.152344 0 Z M 16.152344 0 "/>
<path style=" stroke:none;fill-rule:nonzero;fill:rgb(100%,100%,100%);fill-opacity:1;" d="M 50.753906 43.054688 C 53.308594 43.054688 55.246094 42.503906 56.566406 41.394531 C 57.882812 40.289062 58.542969 38.65625 58.542969 36.5 C 58.542969 34.371094 57.882812 32.75 56.566406 31.644531 C 55.246094 30.511719 53.308594 29.945312 50.753906 29.945312 L 41.789062 29.945312 L 41.789062 43.054688 L 50.753906 43.054688 M 51.300781 70.152344 C 54.558594 70.152344 57 69.476562 58.628906 68.121094 C 60.28125 66.765625 61.109375 64.71875 61.109375 61.976562 C 61.109375 59.296875 60.296875 57.289062 58.667969 55.960938 C 57.042969 54.605469 54.585938 53.929688 51.300781 53.929688 L 41.789062 53.929688 L 41.789062 70.152344 L 51.300781 70.152344 M 66.371094 47.871094 C 69.851562 48.867188 72.546875 50.707031 74.457031 53.390625 C 76.363281 56.070312 77.316406 59.363281 77.316406 63.265625 C 77.316406 69.242188 75.269531 73.695312 71.171875 76.625 C 67.074219 79.558594 60.84375 81.023438 52.480469 81.023438 L 25.582031 81.023438 L 25.582031 19.070312 L 49.914062 19.070312 C 58.640625 19.070312 64.957031 20.371094 68.855469 22.972656 C 72.785156 25.574219 74.75 29.734375 74.75 35.460938 C 74.75 38.476562 74.035156 41.050781 72.601562 43.179688 C 71.171875 45.28125 69.09375 46.847656 66.371094 47.871094 "/>
</g>
</svg>
