<?xml version="1.0" encoding="UTF-8"?>
<svg xmlns="http://www.w3.org/2000/svg" xmlns:xlink="http://www.w3.org/1999/xlink" width="100pt" height="115pt" viewBox="0 0 100 115" version="1.1">
<g id="surface1">
<path style=" stroke:none;fill-rule:nonzero;fill:rgb(14.901961%,30.196078%,89.411765%);fill-opacity:1;" d="M 99.925781 27.710938 L 90.824219 129.660156 L 49.902344 141 L 9.09375 129.675781 L 0 27.710938 Z M 99.925781 27.710938 "/>
<path style=" stroke:none;fill-rule:nonzero;fill:rgb(16.078431%,39.607843%,94.509804%);fill-opacity:1;" d="M 83.03125 123.167969 L 90.808594 36.046875 L 49.964844 36.046875 L 49.964844 132.332031 Z M 83.03125 123.167969 "/>
<path style=" stroke:none;fill-rule:nonzero;fill:rgb(92.156863%,92.156863%,92.156863%);fill-opacity:1;" d="M 20.847656 73.863281 L 21.96875 86.371094 L 49.964844 86.371094 L 49.964844 73.863281 Z M 20.847656 73.863281 "/>
<path style=" stroke:none;fill-rule:nonzero;fill:rgb(92.156863%,92.156863%,92.156863%);fill-opacity:1;" d="M 49.964844 48.554688 L 18.59375 48.554688 L 19.730469 61.058594 L 49.964844 61.058594 Z M 49.964844 48.554688 "/>
<path style=" stroke:none;fill-rule:nonzero;fill:rgb(92.156863%,92.156863%,92.156863%);fill-opacity:1;" d="M 49.964844 119.355469 L 49.964844 106.34375 L 49.910156 106.359375 L 35.976562 102.597656 L 35.085938 92.621094 L 22.527344 92.621094 L 24.28125 112.257812 L 49.90625 119.371094 Z M 49.964844 119.355469 "/>
<path style=" stroke:none;fill-rule:nonzero;fill:rgb(0%,0%,0%);fill-opacity:1;" d="M 23.515625 0 L 38.667969 0 L 38.667969 6.332031 L 29.851562 6.332031 L 29.851562 12.667969 L 38.667969 12.667969 L 38.667969 19 L 23.515625 19 Z M 23.515625 0 "/>
<path style=" stroke:none;fill-rule:nonzero;fill:rgb(0%,0%,0%);fill-opacity:1;" d="M 41.699219 0 L 56.851562 0 L 56.851562 5.507812 L 48.035156 5.507812 L 48.035156 6.609375 L 56.851562 6.609375 L 56.851562 19.277344 L 41.699219 19.277344 L 41.699219 13.492188 L 50.515625 13.492188 L 50.515625 12.390625 L 41.699219 12.390625 Z M 41.699219 0 "/>
<path style=" stroke:none;fill-rule:nonzero;fill:rgb(0%,0%,0%);fill-opacity:1;" d="M 59.878906 0 L 75.03125 0 L 75.03125 5.507812 L 66.21875 5.507812 L 66.21875 6.609375 L 75.03125 6.609375 L 75.03125 19.277344 L 59.878906 19.277344 L 59.878906 13.492188 L 68.695312 13.492188 L 68.695312 12.390625 L 59.878906 12.390625 Z M 59.878906 0 "/>
<path style=" stroke:none;fill-rule:nonzero;fill:rgb(100%,100%,100%);fill-opacity:1;" d="M 65.324219 86.371094 L 63.871094 102.589844 L 49.921875 106.351562 L 49.921875 119.363281 L 75.566406 112.257812 L 75.753906 110.144531 L 78.695312 77.222656 L 79 73.863281 L 81.257812 48.554688 L 49.921875 48.554688 L 49.921875 61.058594 L 67.546875 61.058594 L 66.410156 73.863281 L 49.921875 73.863281 L 49.921875 86.371094 Z M 65.324219 86.371094 "/>
</g>
</svg>
